<svg xmlns="http://www.w3.org/2000/svg" xmlns:xlink="http://www.w3.org/1999/xlink" width="147" height="147" version="1.1" viewBox="0 0 147 147"><title>Artboard</title><desc>Created with Sketch.</desc><defs><radialGradient id="radialGradient-1" cx="50.831%" cy="50%" r="48.895%" fx="50.831%" fy="50%" gradientTransform="translate(0.508313,0.500000),scale(0.466321,1.000000),rotate(89.343200),translate(-0.508313,-0.500000)"><stop offset="0%" stop-color="#FFF"/><stop offset="100%" stop-color="#F2F2F2"/></radialGradient><linearGradient id="linearGradient-2" x1="0%" x2="100%" y1="50%" y2="50%"><stop offset="0%" stop-color="#FF593D"/><stop offset="100%" stop-color="#FF7751"/></linearGradient></defs><g id="Page-1" fill="none" fill-rule="evenodd" stroke="none" stroke-width="1"><g id="Artboard"><rect id="Rectangle" width="386" height="180" x="-120" y="-16" fill="url(#radialGradient-1)"/><g id="1559836068-datoicon" fill="url(#linearGradient-2)" fill-rule="nonzero" transform="translate(29.000000, 29.000000)"><path id="Shape" d="M44.5007946,0.113633929 L0.397321429,0.113633929 L0.397321429,88.8863661 L44.5007946,88.8863661 C66.5576964,88.8863661 88.6026786,69.0131429 88.6026786,44.5063571 C88.6026786,19.9995714 66.5576964,0.113633929 44.5007946,0.113633929 Z M44.5007946,64.6688304 C33.3614911,64.6648571 24.3351429,55.6305625 24.3391161,44.4912589 C24.3430893,33.3519554 33.3773839,24.3256071 44.5166875,24.3295804 C55.6551964,24.3335536 64.6823393,33.3670536 64.6783661,44.5055625 C64.6791607,55.6408929 55.6528125,64.6680357 44.5174821,64.6680357 C44.5119196,64.6688304 44.5063571,64.6688304 44.5007946,64.6688304 Z"/></g></g></g></svg>