<svg xmlns="http://www.w3.org/2000/svg" xmlns:svg="http://www.w3.org/2000/svg" id="svg4155" width="38.249" height="38.291" version="1.1" viewBox="0 0 10.12 10.131"><metadata id="metadata4152"/><g id="layer1" transform="translate(-96.2373,-134.75365)"><path style="fill:#41a4ff;fill-opacity:1;stroke-width:.26458332" id="path4120" d="m 106.35057,140.41454 c -0.0529,-0.37042 -0.39687,-0.66146 -0.79375,-0.60854 l -1.66687,0.21166 1.79916,-1.71979 c 0.26459,-0.26458 0.29105,-0.71437 0.0265,-0.97896 -0.26458,-0.26458 -0.71437,-0.29104 -0.97896,-0.0264 l -1.21708,1.16416 0.44979,-2.46062 c 0.0794,-0.37042 -0.18521,-0.74084 -0.55562,-0.82021 v 0 c -0.37042,-0.0794 -0.74084,0.18521 -0.82021,0.55562 l -0.29104,1.64042 -1.05834,-2.2225 c -0.15875,-0.34396 -0.58208,-0.50271 -0.92604,-0.3175 -0.34396,0.15875 -0.50271,0.58208 -0.3175,0.92604 l 0.71438,1.50813 -2.196037,-1.19063 c -0.34396,-0.18521 -0.7673,-0.0794 -0.9525,0.26459 -0.18521,0.34395 -0.0529,0.76729 0.29104,0.9525 l 1.481657,0.79375 -2.487077,0.3175 c -0.37042,0.0529 -0.66146,0.39687 -0.60854,0.79375 0.0529,0.37041 0.39687,0.66145 0.79375,0.60854 l 1.66687,-0.21167 -1.79916,1.71979 c -0.26459,0.26459 -0.29104,0.71438 -0.0265,0.97896 0.26458,0.26458 0.71437,0.29104 0.97896,0.0265 l 1.21708,-1.16417 -0.47625,2.46063 c -0.0794,0.37041 0.18521,0.74083 0.55563,0.82021 0.370407,0.0794 0.740827,-0.18521 0.820197,-0.55563 l 0.29105,-1.64042 1.08479,2.24896 c 0.15875,0.34396 0.58208,0.50271 0.92604,0.3175 v 0 c 0.34396,-0.15875 0.50271,-0.58208 0.3175,-0.92604 l -0.71438,-1.50812 2.19605,1.19062 c 0.34395,0.18521 0.76729,0.0529 0.9525,-0.29104 0.1852,-0.34396 0.0529,-0.76729 -0.29105,-0.9525 l -1.48166,-0.79375 2.48708,-0.3175 c 0.39688,-0.0529 0.66146,-0.42333 0.60854,-0.79375 z m -5.05354,0.52917 c -0.635,0 -1.13771,-0.50271 -1.13771,-1.13771 0,-0.635 0.50271,-1.13771 1.13771,-1.13771 0.635,0 1.13771,0.50271 1.13771,1.13771 0,0.635 -0.50271,1.13771 -1.13771,1.13771 z"/></g></svg>