<svg xmlns="http://www.w3.org/2000/svg" id="Layer_1" data-name="Layer 1" viewBox="0 0 192.16 192.16"><defs><style>.cls-1{fill:#209fda;fill-rule:evenodd}.cls-2{fill:#fff}</style></defs><title>jahia-dx-logo</title><path d="M288.62,514.12,205.91,431.4a13.37,13.37,0,0,1,0-18.91l82.71-82.71a13.37,13.37,0,0,1,18.91,0l82.71,82.71a13.37,13.37,0,0,1,0,18.91l-82.71,82.71A13.37,13.37,0,0,1,288.62,514.12Z" class="cls-1" transform="translate(-201.99 -325.87)"/><rect width="22.21" height="22.21" x="347.96" y="411.01" class="cls-2" rx="1.34" ry="1.34" transform="translate(-395.31 51.64) rotate(-45)"/><path d="M342.41,389.76,328.6,375.94a1.34,1.34,0,0,0-1.89,0l-29.52,29.53a1.34,1.34,0,0,1-1.89,0l-29.52-29.53a1.34,1.34,0,0,0-1.89,0l-13.82,13.82a1.34,1.34,0,0,0,0,1.89l76.64,76.65a1.34,1.34,0,0,0,1.89,0l13.82-13.82a1.34,1.34,0,0,0,0-1.89l-29.52-29.52a1.34,1.34,0,0,1,0-1.89l29.52-29.52A1.34,1.34,0,0,0,342.41,389.76Z" class="cls-2" transform="translate(-201.99 -325.87)"/><path d="M250.06,454.48l13.82,13.82a1.34,1.34,0,0,0,1.89,0l22.61-22.62L272.68,430l-22.62,22.61A1.34,1.34,0,0,0,250.06,454.48Z" class="cls-2" transform="translate(-201.99 -325.87)"/></svg>