<svg xmlns="http://www.w3.org/2000/svg" xmlns:xlink="http://www.w3.org/1999/xlink" id="Layer_1" x="0" y="0" version="1.1" viewBox="0 0 110 106.5" xml:space="preserve" style="enable-background:new 0 0 110 106.5"><style type="text/css">.st0{fill:#e6e7e8}.st1{fill:url(#SVGID_1_)}.st2{fill:url(#SVGID_2_)}.st3{fill:url(#SVGID_3_)}.st4{fill:url(#SVGID_4_)}.st5{fill:url(#SVGID_5_)}.st6{fill:#4b4a4b}.st7{fill:#404041}</style><g><g><g><path d="M32.7,70.2c-0.4-5.6,1.4-13.2,4.2-21.1c-5.1,2.5-9.7,5.3-13.7,8.3c-4.9,13.9,0,30,12,38.7 c1.5,1.1,3.1,2.1,4.8,2.9c4.8,2.4,10,3.5,15.1,3.5C55,102.4,34.1,89.3,32.7,70.2z" class="st0"/><g><path d="M43.1,33.5C49.3,19.6,55.9,8,55.9,8L55,6.6c-5.6,8.6-11.3,17.2-16.9,25.7L43.1,33.5z" class="st0"/><path d="M35,37.2c-2.5,3.9-5,7.7-7.4,11.6l11.7-6.2c0.6-1.4,1.1-2.9,1.7-4.3C39,37.8,36.9,37.5,35,37.2z" class="st0"/></g></g><g><linearGradient id="SVGID_1_" x1="47.694" x2="17.319" y1="177.701" y2="100.751" gradientTransform="matrix(1 0 0 -1 0 178.5)" gradientUnits="userSpaceOnUse"><stop offset="0" style="stop-color:#2ac4f3"/><stop offset=".5" style="stop-color:#00b2e2"/><stop offset="1" style="stop-color:#0095da"/></linearGradient><path d="M36.8,37.5c-1.1-0.2-2.2-0.4-3.2-0.5c-0.2,0-0.3,0-0.5-0.1c-2.8,4.4-5.6,8.7-8.3,13.1 c-0.1,0.1-0.1,0.2-0.2,0.3l6-3.2C32.7,44,34.7,40.7,36.8,37.5z" class="st1"/><linearGradient id="SVGID_2_" x1="64.8" x2="34.425" y1="170.949" y2="93.999" gradientTransform="matrix(1 0 0 -1 0 178.5)" gradientUnits="userSpaceOnUse"><stop offset="0" style="stop-color:#2ac4f3"/><stop offset=".5" style="stop-color:#00b2e2"/><stop offset="1" style="stop-color:#0095da"/></linearGradient><path d="M39.9,32.7c2.3-3.5,4.6-7,6.9-10.5c2.7-4.1,5.5-8.3,8.2-12.6c2.7,4.2,5.5,8.4,8.2,12.5 c2.4,3.7,4.8,7.4,7.2,11.1l3.6-0.8c-2.7-4.1-5.3-8.2-7.9-12.2c-3.1-4.8-6.3-9.7-9.5-14.6L55,3.4l-1.4,2.2 c-3.2,4.9-6.5,9.9-9.7,14.7c-2.6,3.9-5.2,7.9-7.8,11.9h2L39.9,32.7z" class="st2"/><linearGradient id="SVGID_3_" x1="90.19" x2="59.815" y1="160.927" y2="83.977" gradientTransform="matrix(1 0 0 -1 0 178.5)" gradientUnits="userSpaceOnUse"><stop offset="0" style="stop-color:#2ac4f3"/><stop offset=".5" style="stop-color:#00b2e2"/><stop offset="1" style="stop-color:#0095da"/></linearGradient><path d="M79.6,47.5l6.5,4c-0.3-0.5-0.5-0.9-0.8-1.4l0,0c-2.8-4.4-5.6-8.8-8.5-13.2c-0.5,0.1-1.1,0.1-1.6,0.2 c-0.7,0.1-1.4,0.2-2.1,0.3C75.2,40.7,77.4,44,79.6,47.5z" class="st3"/><linearGradient id="SVGID_4_" x1="77.359" x2="46.984" y1="165.992" y2="89.041" gradientTransform="matrix(1 0 0 -1 0 178.5)" gradientUnits="userSpaceOnUse"><stop offset="0" style="stop-color:#2ac4f3"/><stop offset=".5" style="stop-color:#00b2e2"/><stop offset="1" style="stop-color:#0095da"/></linearGradient><path d="M89.4,59.8c-1.5-1.2-3.1-2.3-4.8-3.5c3.6,8.5,3.4,18.4-0.8,26.8c-2.3,4.6-5.8,8.7-10.1,11.7 c-5.4,3.8-12.1,6-18.7,6c-5,0-9.8-1.1-14.3-3.3c-1.6-0.8-3.1-1.7-4.5-2.7c-6.4-4.7-10.9-11.7-12.5-19.7 c-1.4-6.7-0.6-13.4,2.1-19.5c-1.7,1.2-3.4,2.4-4.9,3.7c-1.4,5.3-1.6,10.9-0.5,16.4c1.8,8.8,6.7,16.6,13.8,21.8 c1.6,1.1,3.3,2.2,5,3c4.8,2.4,10.1,3.6,15.5,3.6c0.1,0,0.2,0,0.3,0c7.3-0.1,14.7-2.4,20.7-6.7c4.7-3.3,8.6-7.8,11.1-12.9 C90.7,76.8,91.5,67.9,89.4,59.8z" class="st4"/><linearGradient id="SVGID_5_" x1="80.501" x2="50.126" y1="164.751" y2="87.801" gradientTransform="matrix(1 0 0 -1 0 178.5)" gradientUnits="userSpaceOnUse"><stop offset="0" style="stop-color:#2ac4f3"/><stop offset=".5" style="stop-color:#00b2e2"/><stop offset="1" style="stop-color:#0095da"/></linearGradient><path d="M38.1,78.3c0,0,5.1,9.2,16.9,9.2c11.2,0,16.9-9.2,16.9-9.2C53.3,90.4,38.1,78.3,38.1,78.3z" class="st5"/></g><path d="M68.1,43.5" class="st6"/><g><path d="M7.5,72.2C6.7,76,7.8,78,8.4,79.1c1.7,2.9,4.8,4.7,9.2,5.3c0,0,0,0,0.1,0c0,0,0.8,0.2,2,0.2 c0.5,1.2,1.1,2.3,1.7,3.4c-0.3,0-0.6,0-0.9,0c-1.8,0-3.2-0.2-3.4-0.3c-5.5-0.8-9.5-3.2-11.7-7c-1.1-1.9-2.3-5.6-1.1-10.2 C4.4,70.7,5.8,71.7,7.5,72.2z" class="st7"/><path d="M49.2,40.2c-1.9-0.6-3.8-1.1-5.6-1.5c-1.3,0.5-2.6,1-3.9,1.6c-10.8,4.5-19.9,10.3-26.3,16.6 c-0.9-0.5-1.9-0.8-3-0.8c-3.6,0-6.5,2.9-6.5,6.5s2.9,6.5,6.5,6.5s6.5-2.9,6.5-6.5c0-1.2-0.4-2.4-1-3.4c6.1-5.9,15-11.6,25.2-15.9 C43.7,42.3,46.5,41.2,49.2,40.2z M10.3,66.2c-1.9,0-3.5-1.6-3.5-3.5s1.6-3.5,3.5-3.5s3.5,1.6,3.5,3.5 C13.8,64.7,12.2,66.2,10.3,66.2z" class="st7"/><path d="M60.2,36.8c4.9-1.3,9.5-2.3,13.7-2.9C84,32.5,88.7,34,89.7,35.9c0.9,1.7-0.2,5.2-3.1,9.4l2.8,1.9 c3.8-5.5,4.9-9.9,3.3-12.9c-3.6-6.8-20.4-5-38.3,0.5" class="st7"/><path d="M54.5,35c-17.8-5.5-34.6-7.3-38.3-0.5c-1.6,3-0.5,7.4,3.3,12.9l2.8-1.9c-2.9-4.2-4.1-7.6-3.1-9.4 c1-1.9,5.7-3.4,15.8-2.1c9.5,1.2,21.2,4.6,33,9.6c16.9,7.1,29.8,17.7,33,27.2c1.1,3.2,0.9,6.1-0.4,8.5c-1.7,2.9-4.8,4.7-9.3,5.3 c0,0-0.3,0-0.8,0.1c-0.2,0.6-0.5,1.1-0.8,1.6c-0.3,0.6-0.6,1.2-1,1.9c1.8,0,3-0.2,3.1-0.2c0.7-0.1,1.3-0.2,2-0.4 c0.6-0.1,1.3-0.3,1.8-0.5c0.3-0.1,0.6-0.2,0.9-0.3c3.1-1.2,5.5-3.2,7-5.8l0,0c1.9-3.2,2.1-7.1,0.7-11.3 c-3.5-10.5-16.9-21.7-34.9-29.2c-3-1.3-6.1-2.5-9.2-3.5L54.5,35z" class="st6"/><path d="M32,23.5c-0.7,0-1.4-0.3-1.9-0.8s-0.8-1.2-0.8-1.9c0-0.7,0.3-1.4,0.8-1.9s1.2-0.8,1.9-0.8 c0.7,0,1.4,0.3,1.9,0.8s0.8,1.2,0.8,1.9c0,0.7-0.3,1.4-0.8,1.9C33.4,23.2,32.7,23.5,32,23.5z" class="st6"/><path d="M99.9,51.2c-0.7,0-1.4-0.3-1.9-0.8s-0.8-1.2-0.8-1.9s0.3-1.4,0.8-1.9s1.2-0.8,1.9-0.8s1.4,0.3,1.9,0.8 s0.8,1.2,0.8,1.9s-0.3,1.4-0.8,1.9C101.3,51,100.7,51.2,99.9,51.2z" class="st7"/></g></g></g></svg>