<svg xmlns="http://www.w3.org/2000/svg" xmlns:svg="http://www.w3.org/2000/svg" id="svg47" width="78.003" height="78" version="1.1" viewBox="0 0 78.003 78"><metadata id="metadata51"/><defs id="defs15"><linearGradient id="a" x1="92.04" x2="145.2" y1="77.13" y2="23.97" gradientUnits="userSpaceOnUse"><stop id="stop10" offset="0" stop-color="#d81e75"/><stop id="stop12" offset="1" stop-color="#ff5fa8"/></linearGradient></defs><title id="title17">Modernizr logo</title><g id="g54" transform="translate(0,-9.9997)"><path style="fill:#d81e75" id="path21" d="m 0,65.33705 v 19.53 a 3.15,3.15 0 0 0 3.26,3.13 h 71.61 a 3,3 0 0 0 3.13,-3.13 v -71.61 A 3.15,3.15 0 0 0 74.87,9.9970503 H 55.34 A 3.33,3.33 0 0 0 52,13.25705 v 19.53 a 3.15,3.15 0 0 1 -3.17,3.21 H 29.3 a 3.33,3.33 0 0 0 -3.3,3.3 v 19.53 a 3.15,3.15 0 0 1 -3.21,3.17 H 3.26 a 3.33,3.33 0 0 0 -3.26,3.34 z"/></g><path style="opacity:.8;fill:#f38" id="path23" d="M 74.87,-0.00264973 H 55.34 A 3.33,3.33 0 0 0 52,3.2573503 V 22.78735 a 3.15,3.15 0 0 1 -3.17,3.21 H 29.3 a 3.33,3.33 0 0 0 -3.3,3.3 v 48.7 h 48.87 a 3,3 0 0 0 3.13,-3.13 V 3.2573503 a 3.15,3.15 0 0 0 -3.13,-3.26000003 z"/><path style="opacity:.8;fill:#ff5fa8" id="path25" d="M 74.87,-0.00264973 H 55.34 A 3.33,3.33 0 0 0 52,3.2573503 V 77.99735 h 22.87 a 3,3 0 0 0 3.13,-3.13 V 3.2573503 a 3.15,3.15 0 0 0 -3.13,-3.26000003 z"/></svg>