<svg xmlns="http://www.w3.org/2000/svg" xmlns:xlink="http://www.w3.org/1999/xlink" width="550.337" height="636.548" version="1.1" viewBox="0 0 550.33 636.557"><metadata/><title>Moon Logo</title><g><g transform="matrix(1.1168 0 0 1.0609 -223.35 -212.19) translate(-3102,-6459)"><clipPath id="f" clip-rule="evenodd"><path fill="#fff" d="m3102 6459h1e3v1e3h-1e3z"/></clipPath><g clip-path="url(#f)"><use width="100%" height="100%" fill="url(#d)" transform="translate(3302,6659)" xlink:href="#e"/></g></g></g><defs><linearGradient id="d" x2="1" gradientTransform="matrix(348 600 -195.66 352.44 97.83 -176.22)" gradientUnits="userSpaceOnUse"><stop offset="0" stop-color="#007EFF"/><stop offset=".972" stop-color="#B22BFF"/></linearGradient><path id="e" fill-rule="evenodd" d="m491.47 530.96c6.198-5.145 3.529-15.01-4.221-17.208-125.37-35.561-217.25-151.37-217.25-288.75 0-79.162 30.508-151.16 80.353-204.78 5.473-5.886 2.646-15.667-5.301-16.864-14.695-2.2131-29.74-3.3603-45.052-3.3603-165.69 0-300 134.31-300 300s134.31 300 300 300c72.788 0 139.52-25.923 191.47-69.039z"/></defs></svg>