<svg xmlns="http://www.w3.org/2000/svg" xmlns:xlink="http://www.w3.org/1999/xlink" width="511" height="511" version="1.1" viewBox="0 0 511 511"><title>phenomic-avatar-white</title><desc>Created with Sketch.</desc><defs><linearGradient id="linearGradient-1" x1="0%" x2="100%" y1="0%" y2="100%"><stop offset="0%" stop-color="#006BF6"/><stop offset="100%" stop-color="#10E951"/></linearGradient><linearGradient id="linearGradient-2" x1="50%" x2="50%" y1="0%" y2="100%"><stop offset="0%" stop-color="#FFF"/><stop offset="100%" stop-color="#DEECF1"/></linearGradient><path id="path-3" d="M166.177063,407.147639 L16.2000677,320.450821 C6.20934603,314.756258 0.0522733949,304.064425 0.0522733949,292.559083 L0.0522733949,119.165448 C0.0522733949,107.660106 6.20934603,96.9682734 16.2000677,91.2737103 L166.177063,4.57689265 C176.167785,-1.11767045 188.48193,-1.11767045 198.356481,4.57689265 L348.333476,91.2737103 C358.324198,96.9682734 364.481271,107.660106 364.481271,119.165448 L364.481271,292.442868 C364.481271,303.94821 358.324198,314.640042 348.333476,320.334605 L198.356481,407.031423 C193.477291,409.936812 187.901074,411.447615 182.324858,411.447615 C176.748641,411.447615 171.172424,410.053028 166.177063,407.147639 Z M20.4984014,98.8277226 L24.9129063,106.381735 C20.3822302,109.054693 17.4779507,113.935747 17.4779507,119.165448 L17.4779507,292.442868 C17.4779507,297.672569 20.266059,302.669838 24.9129063,305.226581 L174.889902,391.923399 C179.420578,394.596357 185.112966,394.596357 189.643642,391.923399 L339.620638,305.226581 C344.151314,302.553623 347.055593,297.672569 347.055593,292.442868 L347.055593,119.165448 C347.055593,113.935747 344.267485,108.938477 339.620638,106.381735 L189.643642,19.6849172 C185.112966,17.011959 179.420578,17.011959 174.889902,19.6849172 L24.7967351,106.381735 L20.4984014,98.8277226 L20.4984014,98.8277226 Z"/><filter id="filter-4" width="200%" height="200%" x="-50%" y="-50%" filterUnits="objectBoundingBox"><feOffset dx="0" dy="2" in="SourceAlpha" result="shadowOffsetOuter1"/><feGaussianBlur in="shadowOffsetOuter1" result="shadowBlurOuter1" stdDeviation="3"/><feColorMatrix in="shadowBlurOuter1" type="matrix" values="0 0 0 0 0 0 0 0 0 0 0 0 0 0 0 0 0 0 0.35 0"/></filter><filter id="filter-5" width="200%" height="200%" x="-50%" y="-50%" filterUnits="objectBoundingBox"><feGaussianBlur in="SourceAlpha" result="shadowBlurInner1" stdDeviation="2"/><feOffset dx="0" dy="2" in="shadowBlurInner1" result="shadowOffsetInner1"/><feComposite in="shadowOffsetInner1" in2="SourceAlpha" k2="-1" k3="1" operator="arithmetic" result="shadowInnerInner1"/><feColorMatrix in="shadowInnerInner1" type="matrix" values="0 0 0 0 1 0 0 0 0 1 0 0 0 0 1 0 0 0 1 0"/></filter><path id="path-6" d="M182.324858,335.675061 C178.723551,335.675061 175.006073,334.745336 171.75328,332.885887 L77.6546228,278.613215 C71.1490367,274.894316 67.0830453,267.805166 67.0830453,260.251154 L67.0830453,151.589593 C67.0830453,144.035581 71.1490367,137.062646 77.6546228,133.227532 L171.75328,78.9548596 C178.258866,75.2359612 186.390849,75.2359612 192.896435,78.9548596 L286.995092,133.227532 C293.500679,136.946431 297.56667,144.035581 297.56667,151.589593 L297.56667,260.251154 C297.56667,267.805166 293.500679,274.778101 286.995092,278.613215 L192.896435,332.885887 C189.643642,334.745336 185.926164,335.675061 182.324858,335.675061 L182.324858,335.675061 Z M182.324858,315.919563 C179.27186,315.919563 176.120378,315.131391 173.362831,313.555048 L93.5909461,267.545535 C88.0758528,264.392849 84.6289195,258.383041 84.6289195,251.979147 L84.6289195,159.8616 C84.6289195,153.457706 88.0758528,147.546419 93.5909461,144.295212 L173.362831,98.2856987 C178.877924,95.1330125 185.771791,95.1330125 191.286884,98.2856987 L271.058769,144.295212 C276.573863,147.447898 280.020796,153.457706 280.020796,159.8616 L280.020796,251.979147 C280.020796,258.383041 276.573863,264.294327 271.058769,267.545535 L191.286884,313.555048 C188.529338,315.131391 185.377856,315.919563 182.324858,315.919563 L182.324858,315.919563 Z"/><filter id="filter-7" width="200%" height="200%" x="-50%" y="-50%" filterUnits="objectBoundingBox"><feOffset dx="0" dy="2" in="SourceAlpha" result="shadowOffsetOuter1"/><feGaussianBlur in="shadowOffsetOuter1" result="shadowBlurOuter1" stdDeviation="3"/><feColorMatrix in="shadowBlurOuter1" type="matrix" values="0 0 0 0 0 0 0 0 0 0 0 0 0 0 0 0 0 0 0.35 0"/></filter><filter id="filter-8" width="200%" height="200%" x="-50%" y="-50%" filterUnits="objectBoundingBox"><feGaussianBlur in="SourceAlpha" result="shadowBlurInner1" stdDeviation="2"/><feOffset dx="0" dy="2" in="shadowBlurInner1" result="shadowOffsetInner1"/><feComposite in="shadowOffsetInner1" in2="SourceAlpha" k2="-1" k3="1" operator="arithmetic" result="shadowInnerInner1"/><feColorMatrix in="shadowInnerInner1" type="matrix" values="0 0 0 0 1 0 0 0 0 1 0 0 0 0 1 0 0 0 1 0"/></filter><path id="path-9" d="M156.651026,258.972783 C155.140801,258.972783 153.630576,258.624136 152.352693,257.810627 C148.17053,255.3701 146.776476,250.024184 149.216071,245.956638 L200.447562,157.284156 C202.887157,153.100395 208.231031,151.705808 212.297023,154.146336 C216.479185,156.586863 217.873239,161.932779 215.433644,166.000324 L164.202153,254.556591 C162.575757,257.345765 159.671477,258.972783 156.651026,258.972783 L156.651026,258.972783 Z"/><filter id="filter-10" width="200%" height="200%" x="-50%" y="-50%" filterUnits="objectBoundingBox"><feOffset dx="0" dy="2" in="SourceAlpha" result="shadowOffsetOuter1"/><feGaussianBlur in="shadowOffsetOuter1" result="shadowBlurOuter1" stdDeviation="3"/><feColorMatrix in="shadowBlurOuter1" type="matrix" values="0 0 0 0 0 0 0 0 0 0 0 0 0 0 0 0 0 0 0.35 0"/></filter><filter id="filter-11" width="200%" height="200%" x="-50%" y="-50%" filterUnits="objectBoundingBox"><feGaussianBlur in="SourceAlpha" result="shadowBlurInner1" stdDeviation="2"/><feOffset dx="0" dy="2" in="shadowBlurInner1" result="shadowOffsetInner1"/><feComposite in="shadowOffsetInner1" in2="SourceAlpha" k2="-1" k3="1" operator="arithmetic" result="shadowInnerInner1"/><feColorMatrix in="shadowInnerInner1" type="matrix" values="0 0 0 0 1 0 0 0 0 1 0 0 0 0 1 0 0 0 1 0"/></filter></defs><g id="Phenomic" fill="none" fill-rule="evenodd" stroke="none" stroke-width="1"><g id="logo-on-background" transform="translate(-2.000000, -1.000000)"><rect id="bg-avatar-dark" width="512" height="512" x="1" y="0" fill="url(#linearGradient-1)"/><g id="Group-3"><g id="Phenomic-Logo" transform="translate(74.000000, 50.000000)"><polygon id="Shape" fill="#000" fill-opacity=".02" points="10.275 105.684 180.466 204.003 351.238 105.684 351.238 304.413 180.815 403.08 8.068 303.135"/><g id="Shape"><use fill="#000" fill-opacity="1" filter="url(#filter-4)" xlink:href="#path-3"/><use fill="url(#linearGradient-2)" fill-rule="evenodd" xlink:href="#path-3"/><use fill="#000" fill-opacity="1" filter="url(#filter-5)" xlink:href="#path-3"/></g><g id="Shape"><use fill="#000" fill-opacity="1" filter="url(#filter-7)" xlink:href="#path-6"/><use fill="url(#linearGradient-2)" fill-rule="evenodd" xlink:href="#path-6"/><use fill="#000" fill-opacity="1" filter="url(#filter-8)" xlink:href="#path-6"/></g><g id="Shape"><use fill="#000" fill-opacity="1" filter="url(#filter-10)" xlink:href="#path-9"/><use fill="url(#linearGradient-2)" fill-rule="evenodd" xlink:href="#path-9"/><use fill="#000" fill-opacity="1" filter="url(#filter-11)" xlink:href="#path-9"/></g></g></g></g></g></svg>