<svg xmlns="http://www.w3.org/2000/svg" xmlns:xlink="http://www.w3.org/1999/xlink" class="mx-auto block h-24 mb-3" viewBox="0 0 90 90"><defs><circle id="b" cx="40" cy="40" r="40"/><filter id="a" width="117.5%" height="117.5%" x="-8.8%" y="-6.2%" filterUnits="objectBoundingBox"><feOffset dy="2" in="SourceAlpha" result="shadowOffsetOuter1"/><feGaussianBlur in="shadowOffsetOuter1" result="shadowBlurOuter1" stdDeviation="2"/><feColorMatrix in="shadowBlurOuter1" values="0 0 0 0 0 0 0 0 0 0 0 0 0 0 0 0 0 0 0.1 0"/></filter><linearGradient id="c" x1="0%" y1="0%" y2="100%"><stop offset="0%" stop-color="#2383AE"/><stop offset="100%" stop-color="#6DD7B9"/></linearGradient></defs><g fill="none" fill-rule="evenodd"><g transform="translate(5 5)"><use fill="#000" filter="url(#a)" xlink:href="#b"/><use fill="#FFF" xlink:href="#b"/></g><path fill="url(#c)" d="M25.6 33.92C27.52 26.24 32.32 22.4 40 22.4c11.52 0 12.96 8.64 18.72 10.08 3.84.96 7.2-.48 10.08-4.32-1.92 7.68-6.72 11.52-14.4 11.52-11.52 0-12.96-8.64-18.72-10.08-3.84-.96-7.2.48-10.08 4.32zM11.2 51.2c1.92-7.68 6.72-11.52 14.4-11.52 11.52 0 12.96 8.64 18.72 10.08 3.84.96 7.2-.48 10.08-4.32-1.92 7.68-6.72 11.52-14.4 11.52-11.52 0-12.96-8.64-18.72-10.08-3.84-.96-7.2.48-10.08 4.32z" transform="translate(5 5)"/></g></svg>