<svg xmlns="http://www.w3.org/2000/svg" xmlns:xlink="http://www.w3.org/1999/xlink" id="Layer_1" width="70" height="70" x="0" style="enable-background:new 0 0 70 70" y="0" version="1.1" viewBox="0 0 70 70" xml:space="preserve"><g><g><linearGradient id="SVGID_1_" x1="1.774" x2="40.166" y1="31.273" y2="31.273" gradientUnits="userSpaceOnUse"><stop offset="0" style="stop-color:#905cfb"/><stop offset=".068" style="stop-color:#776cf9"/><stop offset=".173" style="stop-color:#5681f7"/><stop offset=".286" style="stop-color:#3b92f5"/><stop offset=".41" style="stop-color:#269ff4"/><stop offset=".547" style="stop-color:#17a9f3"/><stop offset=".711" style="stop-color:#0faef2"/><stop offset=".968" style="stop-color:#0cb0f2"/></linearGradient><path style="fill:url(#SVGID_1_)" d="M39.7,47.9l-6.1-34c-0.4-2.4-1.2-4.8-2.7-7.1c-2-3.2-5.2-5.4-8.8-6.3 C7.9-2.9-2.6,11.3,3.6,23.9c0,0,0,0,0,0l14.8,31.7c0.4,1,1,2,1.7,2.9c1.2,1.6,2.8,2.8,4.7,3.4C34.4,64.9,42.1,56.4,39.7,47.9z"/><linearGradient id="SVGID_2_" x1="5.311" x2="69.228" y1="9.669" y2="43.866" gradientUnits="userSpaceOnUse"><stop offset="0" style="stop-color:#905cfb"/><stop offset=".068" style="stop-color:#776cf9"/><stop offset=".173" style="stop-color:#5681f7"/><stop offset=".286" style="stop-color:#3b92f5"/><stop offset=".41" style="stop-color:#269ff4"/><stop offset=".547" style="stop-color:#17a9f3"/><stop offset=".711" style="stop-color:#0faef2"/><stop offset=".968" style="stop-color:#0cb0f2"/></linearGradient><path style="fill:url(#SVGID_2_)" d="M67.4,26.5c-1.4-2.2-3.4-3.9-5.7-4.9L25.5,1.7l0,0c-1-0.5-2.1-1-3.3-1.3 C6.7-3.2-4.4,13.8,5.5,27c1.5,2,3.6,3.6,6,4.5L48,47.9c0.8,0.5,1.6,0.8,2.5,1.1C64.5,53.4,75.1,38.6,67.4,26.5z"/><linearGradient id="SVGID_3_" x1="-19.284" x2="55.983" y1="70.82" y2="33.186" gradientUnits="userSpaceOnUse"><stop offset="0" style="stop-color:#3bea62"/><stop offset=".117" style="stop-color:#31de80"/><stop offset=".302" style="stop-color:#24cea8"/><stop offset=".484" style="stop-color:#1ac1c9"/><stop offset=".659" style="stop-color:#12b7df"/><stop offset=".824" style="stop-color:#0eb2ed"/><stop offset=".968" style="stop-color:#0cb0f2"/></linearGradient><path style="fill:url(#SVGID_3_)" d="M67.4,26.5c-1.8-2.8-4.6-4.8-7.9-5.6c-3.5-0.8-6.8-0.5-9.6,0.7L11.4,36.1 c0,0-0.2,0.1-0.6,0.4C0.9,40.4-4,53.3,4,64c1.8,2.4,4.3,4.2,7.1,5c5.3,1.6,10.1,1,14-1.1c0,0,0.1,0,0.1,0l37.6-20.1 c0,0,0,0,0.1-0.1C69.5,43.9,72.6,34.6,67.4,26.5z"/><linearGradient id="SVGID_4_" x1="38.944" x2="5.423" y1="5.85" y2="77.509" gradientUnits="userSpaceOnUse"><stop offset="0" style="stop-color:#3bea62"/><stop offset=".094" style="stop-color:#2fdb87"/><stop offset=".196" style="stop-color:#24cea8"/><stop offset=".306" style="stop-color:#1bc3c3"/><stop offset=".426" style="stop-color:#14bad8"/><stop offset=".56" style="stop-color:#10b5e7"/><stop offset=".719" style="stop-color:#0db1ef"/><stop offset=".968" style="stop-color:#0cb0f2"/></linearGradient><path style="fill:url(#SVGID_4_)" d="M50.3,12.8c1.2-2.7,1.1-6-0.9-9c-1.1-1.8-2.9-3-4.9-3.5c-4.5-1.1-8.3,1-10.1,4.2L3.5,42 c0,0,0,0,0,0.1C-0.9,47.9-1.6,56.5,4,64c1.8,2.4,4.3,4.2,7.1,5c10.5,3.3,19.3-2.5,22.1-10.8L50.3,12.8z"/></g><g><rect style="fill:#000" width="43.2" height="43.2" x="13.4" y="13.4"/><rect style="fill:#fff" width="16.2" height="2.7" x="17.5" y="48.5"/><polygon style="fill:#fff" points="22.9 22.7 17.5 22.7 17.5 19.1 32.3 19.1 32.3 22.7 26.8 22.7 26.8 37 22.9 37"/><path style="fill:#fff" d="M32.5,28.1L32.5,28.1c0-5.1,3.8-9.3,9.3-9.3c3.4,0,5.4,1.1,7.1,2.8l-2.5,2.9c-1.4-1.3-2.8-2-4.6-2 c-3,0-5.2,2.5-5.2,5.6V28c0,3.1,2.1,5.6,5.2,5.6c2,0,3.3-0.8,4.7-2.1l2.5,2.5c-1.8,2-3.9,3.2-7.3,3.2 C36.4,37.3,32.5,33.2,32.5,28.1"/></g></g></svg>